{"accessors" : [{"bufferView" : 0, "byteOffset" : 0, "componentType" : 5123, "count" : 13248, "type" : "SCALAR", "max" : [13247], "min" : [0]}, {"bufferView" : 1, "byteOffset" : 0, "componentType" : 5126, "count" : 13248, "type" : "VEC3", "max" : [4.279311180114746, 37.5835075378418, 18.605148315429688], "min" : [-4.279311180114746, 0.017473485320806503, -17.912189483642578], "name" : "POSITION"}, {"bufferView" : 1, "byteOffset" : 12, "componentType" : 5126, "count" : 13248, "type" : "VEC3", "max" : [0.9997624754905701, 0.9999862909317017, 1.0000017881393433], "min" : [-0.9997624754905701, -1.0000044107437134, -0.9997125864028931], "name" : "NORMAL"}, {"bufferView" : 1, "byteOffset" : 24, "componentType" : 5126, "count" : 13248, "type" : "VEC2", "max" : [0.9954906105995178, -0.004401307553052902], "min" : [0.0068405382335186005, -0.9947125315666199], "name" : "TEXCOORD_0"}], "asset" : {"generator" : "Aspose.3D 23.4.0", "version" : "2.0"}, "buffers" : [{"uri" : "data:application/octet-stream;base64,", "byteLength" : 450440}], "bufferViews" : [{"buffer" : 0, "byteOffset" : 0, "byteLength" : 26496, "target" : 34963}, {"buffer" : 0, "byteOffset" : 26500, "byteLength" : 423936, "byteStride" : 32, "target" : 34962}], "images" : [{"uri" : "D:\\3D Models\\Models\\Squirrel\\Textures\\Squirrel_Normal.jpg"}, {"uri" : "D:\\3D Models\\Models\\Squirrel\\Textures\\Squirrel_Basecolor.jpg"}], "materials" : [{"name" : "Material.001", "pbrMetallicRoughness" : {"baseColorFactor" : [0.800000011920929, 0.800000011920929, 0.800000011920929, 1], "baseColorTexture" : {"index" : 1, "texCoord" : 0}, "metallicFactor" : 0, "roughnessFactor" : 0}, "normalTexture" : {"index" : 0, "texCoord" : 0, "scale" : 1}, "emissiveFactor" : [0, 0, 0], "alphaMode" : "OPAQUE", "doubleSided" : false}], "meshes" : [{"primitives" : [{"attributes" : {"POSITION" : 1, "NORMAL" : 2, "TEXCOORD_0" : 3}, "indices" : 0, "material" : 0, "mode" : 4}], "name" : "Squirrel"}], "nodes" : [{"mesh" : 0, "name" : "Squirrel"}], "samplers" : [{"magFilter" : 9729, "minFilter" : 9729, "wrapS" : 10497, "wrapT" : 10497}, {"magFilter" : 9729, "minFilter" : 9729, "wrapS" : 10497, "wrapT" : 10497}], "scene" : 0, "scenes" : [{"nodes" : [0]}], "textures" : [{"sampler" : 0, "source" : 0, "name" : "normalmap_texture"}, {"sampler" : 1, "source" : 1, "name" : "base_color_texture"}]}